<svg xmlns="http://www.w3.org/2000/svg" viewBox="0 0 714 714"><defs><style>.cls-1{fill:#5046e5;}.cls-2{fill:#fff;}</style></defs><title>资源 1</title><g id="图层_2" data-name="图层 2"><g id="图层_1-2" data-name="图层 1"><rect class="cls-1" width="714" height="714" rx="104.12"/><path class="cls-2" d="M599.33,295.25c-.41,6.44-.88,12.74-1.2,19-.82,15.82-1.64,31.65-2.33,47.48-.44,10-.64,19.91-1,29.86a17.7,17.7,0,0,1-.75,5,5,5,0,0,1-5.29,3.33,4.87,4.87,0,0,1-4.4-4.41,23.92,23.92,0,0,1-.27-4.47c.57-15.31,1.07-30.61,1.82-45.9,1-19.46,2.09-38.92,3.22-58.37.47-8.12,1.22-16.23,1.6-24.35a47.38,47.38,0,0,0-.54-10.85c-1-5.5-5.56-8-11.41-6.58-.19,2.95-.43,6-.58,9.07-.84,17.65-2,35.29-2.42,52.94-.59,24.41-.63,48.83-.9,73.24,0,1.5.1,3,0,4.5-.18,3.22-2.29,5.34-5.23,5.37s-5.12-2-5.22-5.28c-.2-6.95-.45-13.92-.36-20.87q.33-25.54,1-51.07.58-21.51,1.57-43c.62-13.8,1.49-27.58,2.15-41.37a29,29,0,0,0-.55-7c-.85-4.25-3.41-6.5-7.76-6.88-6.72-.58-11.84,2.24-15.42,7.85a43.41,43.41,0,0,0-2.44,5.19,16.47,16.47,0,0,0,1.69,1.37c5.34,3.15,7.76,8.21,8.63,14a72.6,72.6,0,0,1,.57,12.16c-.18,7.71-.69,15.4-1,23.11-.95,26.54-1.83,53.08-1.35,79.65.11,6.21.31,12.41.43,18.62a12.61,12.61,0,0,1-.23,3.19,5,5,0,0,1-5,4.18,4.84,4.84,0,0,1-5-3.75,14.92,14.92,0,0,1-.54-4.11c0-21.41-.32-42.83,0-64.24.29-18.52,1.34-37,1.91-55.53a65.69,65.69,0,0,0-.7-12.46c-.84-5.13-3.76-7.26-9-7.34-6.29-.09-11.1,2.81-14.74,7.73-3.92,5.27-5.58,11.49-7.16,17.73-2.34,9.27-3.33,18.74-4.46,28.2-1.37,11.47-2.79,22.94-4.18,34.42q-1.28,10.51-2.53,21a11.82,11.82,0,0,0,0,1.34c.81.39,1.55.79,2.33,1.11,9.21,3.83,13.9,11.13,15.28,20.63a56.14,56.14,0,0,1,.21,12.16c-1.57,21-2.88,42.09-2,63.21.15,3.85.49,7.69.73,11.53a21.47,21.47,0,0,1,0,2.89c-.23,2.82-2.05,4.79-4.53,5a5.28,5.28,0,0,1-5.9-4.3,44.43,44.43,0,0,1-.56-5.42,291.51,291.51,0,0,1-.76-35.95c.53-12.3,1.43-24.58,2.23-36.87.28-4.17.55-8.32-.39-12.46-1.61-7.05-6.82-11.69-13.44-11.62A19.05,19.05,0,0,0,479,363.21a31.47,31.47,0,0,0-7.31,14.44,139.62,139.62,0,0,0-3.45,25.09c-.35,6.52-.8,13-1.15,19.56-.47,8.7-2.41,17.16-4.19,25.64-1.67,7.95-3.63,15.85-5.21,23.82-3.36,16.95-2.65,33.68,3.47,50C465,532,470.7,541.08,479,548.38c16.37,14.36,31.2,30.25,46.17,46q10.51,11.07,21.09,22.05c1.3,1.35,2.34,2.73,2.33,4.75S548,625,546.08,626a5.28,5.28,0,0,1-5.78-.29,19.84,19.84,0,0,1-2.8-2.63q-16.8-17.72-33.57-35.45c-.59-.62-1.08-1.33-1.65-2a17.76,17.76,0,0,0-2.25,1c-13.54,9.1-28.42,15.2-43.88,20.14-19.33,6.16-39.14,10-59.19,12.84-27.67,3.95-55.44,4.53-83.31,3.3a402.59,402.59,0,0,1-56.39-6.65c-18.84-3.54-37.37-8.4-55.16-15.64-11.62-4.73-22.76-10.43-32.66-18.29a57.42,57.42,0,0,1-13.7-14.75,36.21,36.21,0,0,1-5.35-22.71c.85-9.49,1.53-19,2.19-28.5,1.3-18.58,2.53-37.16,3.79-55.75.94-13.77,1.75-27.56,2.85-41.32.59-7.45,1.42-14.9,2.55-22.29a42.65,42.65,0,0,1,9-20c.33-.42.61-.88,1-1.4-5.85-7.35-7.83-16-8.7-25.09-1.09-11.4-2.5-22.77-3.65-34.16-1-10.12-1.87-20.25-2.81-30.38-1-10.86-2.09-21.72-3-32.59-.8-9.28-1.42-18.57-2.2-27.85-.83-9.92-1.61-19.84-2.68-29.73-1.08-10,1.52-19.12,6.71-27.54,5.93-9.65,14.19-17.09,23.3-23.62,15-10.73,31.4-18.7,48.65-25,23.51-8.58,47.77-14,72.52-17.53a413.06,413.06,0,0,1,67.59-3.67c24.92.59,49.5,3.78,73.47,10.81,14.35,4.21,28,10.12,40.2,18.83,7.78,5.53,14.37,12.12,18.62,20.86a39.09,39.09,0,0,1,3.7,13.87c1.85,20.9,3.59,41.81,5.39,62.71.32,3.8.74,7.59,1.19,12.08,6.12-7,12.89-11.49,22-11.76a34,34,0,0,1,6.31-12.27c6.55-8.26,18.06-11.83,27.67-8.56,8.08,2.76,12.36,8.49,13.3,16.8a73.19,73.19,0,0,1,.14,7.7c0,1.27,0,2.54,0,4.11,1.31.11,2.45.18,3.59.31,6,.7,11.1,3,14.73,8a19.61,19.61,0,0,1,3.42,10.88c.2,4.8,0,9.63-.19,14.44-.18,4.38-.63,8.75-.94,13.13-.07,1,0,2.09,0,3.33,1.2.09,2.13.2,3.06.23,9.74.28,17.05,6.95,17.43,16.6a115.7,115.7,0,0,1-.91,16.3c-1.31,12.78-2.82,25.53-4.27,38.29-1.11,9.68-2.28,19.34-3.37,29-1,9.26-2,18.52-3,27.77q-3.43,30.79-6.92,61.58c-.7,6.28-1.31,12.56-1.92,18.85a34.43,34.43,0,0,0,3.11,18.45,25.92,25.92,0,0,0,5.86,8q17.64,16.4,35.21,32.88a12.62,12.62,0,0,1,2.08,2.42,5.51,5.51,0,0,1-.71,6.81,5.2,5.2,0,0,1-6.51.65,19.72,19.72,0,0,1-3.25-2.6q-16.7-15.53-33.35-31.12c-10.29-9.68-14.65-21.69-13.2-35.67,1.84-17.77,4-35.51,5.93-53.28,1.86-17.13,3.54-34.28,5.43-51.41,1.5-13.61,3.23-27.2,4.79-40.8,1.2-10.42,2.31-20.85,3.46-31.28.33-3,.79-6,1-8.93a23.08,23.08,0,0,0-.34-6.05C608.56,295.87,604.27,293.68,599.33,295.25ZM445.34,228c-33.47,15.2-68.36,23.48-104.41,27.61l-5.92.83c-40.24,3-80,2-119.52-8.56,0,0-6.61-1.8-8.41-2.36-3.37-1-6.68-2.27-10-3.53-12.37-4.77-23.9-11-33.74-20a9.83,9.83,0,0,0-1.57-.91c.21,2.41.39,4.42.57,6.44,1.27,14.82,2.57,29.63,3.78,44.46l1.06,10.77a9.17,9.17,0,0,0-.12,1.34c1.66,16.61,3.26,33.22,5,49.82.83,7.87,1.66,15.75,3,23.54,1.62,9.31,7.55,15.06,16.43,17.91,1.12.36,2.27.63,3.37,1.05a4.83,4.83,0,0,1,3.34,5.81,4.73,4.73,0,0,1-5.32,4,27.81,27.81,0,0,1-6.2-1.46c-2.19-.73-4.28-1.77-6.4-2.66a32.07,32.07,0,0,0-7,12.76C171,402.42,170.69,410.24,170,418c-.31,3.49-.47,7-.69,10.33l-.54,6.92c-.33,5.33-.6,9.91-.91,14.49Q166.44,470.9,165,492l-.62,9.31c-.47,6.78-.91,13-1.33,19.29-.53,7.79-.66,15.63-1.67,23.36-1,8,1.11,14.78,5.86,21a54.58,54.58,0,0,0,12.09,11.41c11.64,8.18,24.51,13.84,37.89,18.47a4.83,4.83,0,0,0,1.25,0l6.07,2.28a380.24,380.24,0,0,0,70.27,13.58c22.45,2.33,65.78,2.85,71.73.6l6,.12a387.86,387.86,0,0,0,66.24-10.86l6-2.37c8.67-.11,42.4-14.4,49.18-20.87-1.53-1.6-3-3.29-4.6-4.8-6-5.64-12-11.32-18.16-16.78-8.6-7.61-14.65-16.94-19.17-27.37-.33-.74-.74-1.44-1.14-2.22l-1.8-5.85c-.2-1-.3-1.73-.5-2.44A91,91,0,0,1,445,493.49a133.59,133.59,0,0,1,3.93-32.11c5-20.21,8.39-40.64,9-61.49a108,108,0,0,1,4-26.94c3.84-13.37,11.67-23,25.89-26.13a10.51,10.51,0,0,0,1.45-.54c.54-4,1.13-7.93,1.58-11.86.73-6.27,1.29-12.56,2-18.83,1-8.18,2-16.36,3.12-24.51Q498,276,500.46,260.94c.46-2.82-.15-5.39-.66-8.55l-.69-13.16a37.46,37.46,0,0,1-.61-5.42c-.94-11.41-1.85-22.82-2.81-34.23-.22-2.69-.56-5.36-.92-8.7-1.67,2.07-2.84,3.58-4.07,5-9.12,10.81-20.54,18.65-32.76,25.49-2.21,1.24-4.34,2.63-6.51,3.95ZM308.59,197.59c15.18-.34,31.15-2.27,46.7-7.06,7.61-2.35,14.83-5.47,21.08-10.52a15.11,15.11,0,0,0,2.71-2.71c2.35-3.16,2.1-6-.95-8.42a26.31,26.31,0,0,0-5.72-3.47,74,74,0,0,0-26.78-5.91c-16.95-.84-33.77.08-50.28,4.42a94.88,94.88,0,0,0-23.23,9,28.21,28.21,0,0,0-8.13,6.69c-2.27,2.81-2.35,4.81.18,7.34a16.72,16.72,0,0,0,5,3.44,78.49,78.49,0,0,0,10.48,3.89C288.73,196.88,298.13,197.39,308.59,197.59Zm4.06-86.18a372.4,372.4,0,0,0-41.44,6.81c-20.49,4.67-40.47,10.82-59.55,19.72-12.36,5.77-24,12.66-34.44,21.55-6.73,5.76-12.32,12.44-15.65,20.83-4.2,10.58-2.51,20.23,4.72,28.79a68.75,68.75,0,0,0,21.05,16.58,159.32,159.32,0,0,0,31.41,11.89A268.16,268.16,0,0,0,269,246,370.19,370.19,0,0,0,327,246l12.69-1.25C374.22,241.15,407,233,439.17,219l9.07-4.42a149.61,149.61,0,0,0,21.41-13.52c8.07-6.15,15.19-13.17,19.79-22.42,5.17-10.4,4-20.32-2.45-29.71-4.25-6.18-10-10.81-16.29-14.82-11.08-7.1-23.26-11.7-35.86-15.28-17.87-5.09-36.17-7.69-54.66-9a372.29,372.29,0,0,0-55.18.32c-1.25.09-2.49.3-3.84.47l-7.78.74m14.13,37.16c7.7.22,15.41.24,23.09.72a72.52,72.52,0,0,1,26.66,6.46,38.27,38.27,0,0,1,9.1,5.89c6.69,6,7.18,15.24,1.55,22.23-1.21,1.49-2.55,2.87-4.15,4.65l-10.27,6.44a7.63,7.63,0,0,1-1.14.58,118.46,118.46,0,0,1-31.14,9.65L326,207.42c-2.24.13-4.14.21-6,.36a149.56,149.56,0,0,1-32.35-.82c-8.42-1.17-16.6-3.14-24.24-7a24.27,24.27,0,0,1-9.27-7.72,14.75,14.75,0,0,1-.26-17.4c3.69-5.64,8.93-9.49,14.79-12.5,12.1-6.22,25.05-9.8,38.44-11.88,4.1-.64,8.24-1,12.66-1.57Z"/><path class="cls-2" d="M543.33,629.73a8.15,8.15,0,0,1-4.75-1.56,20.09,20.09,0,0,1-3-2.79l-.23-.23q-16.8-17.71-33.57-35.46l-.35-.38c-12,8-26.13,14.49-44.34,20.3-17.18,5.48-36.14,9.6-59.67,13-25.29,3.61-52.73,4.7-83.87,3.32a406.49,406.49,0,0,1-56.82-6.69c-21.09-4-39.33-9.14-55.73-15.82-13.76-5.59-24.37-11.54-33.4-18.72-6.49-5.15-11.06-10.09-14.39-15.53a39.4,39.4,0,0,1-5.78-24.54c.83-9.25,1.48-18.35,2.19-28.44q1.38-19.83,2.7-39.67l1.09-16.07q.41-6.09.8-12.19c.63-9.56,1.27-19.44,2-29.17.61-7.76,1.48-15.33,2.57-22.51a45.58,45.58,0,0,1,9.21-20.9c-5.71-8.17-7.27-17.49-8-24.85-.6-6.27-1.31-12.64-2-18.81-.56-5-1.14-10.21-1.66-15.33-.67-6.64-1.27-13.39-1.86-19.92-.31-3.5-.62-7-1-10.48q-.52-5.73-1.08-11.46c-.65-6.93-1.33-14.09-2-21.15-.43-5-.82-10.11-1.19-15q-.48-6.42-1-12.83l-.37-4.52c-.69-8.25-1.4-16.79-2.3-25.14-1.1-10.22,1.23-19.85,7.13-29.44,5.41-8.79,13.07-16.57,24.11-24.48,14.1-10.09,30.24-18.4,49.38-25.38,22.07-8.06,46-13.84,73.12-17.68a412.21,412.21,0,0,1,68.08-3.7c27.07.64,51.35,4.22,74.25,10.93,16.05,4.71,29.49,11,41.09,19.27,9.14,6.5,15.54,13.69,19.58,22a41.86,41.86,0,0,1,4,14.92q1.77,20,3.45,40.09,1,11.31,1.94,22.63c.16,1.87.34,3.75.54,5.72,5.42-4.78,11.07-7.37,17.38-8a37.18,37.18,0,0,1,6.22-11.27c7.38-9.31,20.12-13.23,31-9.54,9.06,3.09,14.21,9.58,15.32,19.31a46.43,46.43,0,0,1,.17,5.74c0,.75,0,1.51,0,2.26,0,.46,0,.91,0,1.38l.93.09c7.45.86,12.95,3.9,16.83,9.27a22.34,22.34,0,0,1,4,12.51c.21,4.77,0,9.48-.18,14.7-.12,2.86-.35,5.73-.58,8.51-.13,1.57-.25,3.13-.36,4.7,0,.11,0,.23,0,.34h.16c11.53.33,19.9,8.34,20.34,19.48a117.74,117.74,0,0,1-.92,16.65c-1.05,10.19-2.22,20.45-3.36,30.38l-.92,8c-.5,4.38-1,8.76-1.53,13.14q-.93,7.93-1.84,15.88-.79,7.14-1.55,14.3-.72,6.74-1.46,13.47-1.6,14.31-3.22,28.63-1.86,16.47-3.71,32.94c-.67,6.08-1.28,12.29-1.86,18.29l0,.52a31.16,31.16,0,0,0,2.83,16.87,22.84,22.84,0,0,0,5.19,7.05c11.21,10.42,22.19,20.68,35.22,32.89a15.21,15.21,0,0,1,2.58,3,8.56,8.56,0,0,1-1.15,10.53,8.22,8.22,0,0,1-10.16,1.08,22.93,22.93,0,0,1-3.75-3L628.31,556c-9.14-8.5-18.6-17.3-27.85-26-10.93-10.29-15.68-23.13-14.13-38.17,1.08-10.37,2.28-20.9,3.44-31.08q1.28-11.12,2.5-22.21,1.31-12,2.53-24.05c.54-5.23,1.1-10.55,1.66-15.89a8,8,0,0,1-15.07-2.59,25.93,25.93,0,0,1-.31-5.06l.39-10.48c.42-11.62.85-23.63,1.43-35.45.87-17.76,1.92-35.8,2.92-53.25l.3-5.14c.21-3.52.46-7.09.72-10.53.33-4.53.67-9.2.88-13.79a44.19,44.19,0,0,0-.48-10.15,5.39,5.39,0,0,0-2.22-3.7,5.82,5.82,0,0,0-3.42-.82l0,.37c-.14,2-.28,4.14-.38,6.23-.25,5.23-.53,10.45-.81,15.68-.65,12.19-1.32,24.8-1.62,37.19-.41,17.19-.55,34.69-.69,51.62q-.09,10.78-.2,21.57c0,.57,0,1.14,0,1.7,0,.94,0,1.92,0,2.93-.27,4.79-3.63,8.16-8.19,8.21h-.11c-4.66,0-8-3.35-8.14-8.19l-.07-2.14c-.19-6.18-.38-12.56-.3-18.86.24-18.48.57-35.2,1-51.11.36-13.42.88-27.51,1.57-43.06.34-7.49.75-15.08,1.16-22.43.34-6.21.69-12.64,1-19a25.87,25.87,0,0,0-.49-6.28c-.58-2.92-2-4.22-5.08-4.48-5.42-.46-9.55,1.65-12.63,6.47a18.55,18.55,0,0,0-1.3,2.64c5.3,3.32,8.54,8.65,9.61,15.86a74.82,74.82,0,0,1,.61,12.67c-.1,4.57-.33,9.2-.55,13.68-.15,3.15-.3,6.31-.42,9.46-1,28.28-1.82,53.78-1.35,79.49.06,3.31.14,6.63.23,9.94.07,2.9.15,5.79.2,8.68a15.28,15.28,0,0,1-.31,3.93,7.9,7.9,0,0,1-7.84,6.5h-.18a7.8,7.8,0,0,1-7.73-5.89,17.5,17.5,0,0,1-.67-5q0-8.7-.07-17.42c-.08-15.36-.16-31.24.08-46.88.18-11.31.65-22.8,1.1-33.9.29-7.11.59-14.45.81-21.67a61.85,61.85,0,0,0-.66-11.88c-.58-3.55-2.11-4.77-6.06-4.83-5-.06-9,2.06-12.29,6.51-3.68,5-5.26,11.2-6.65,16.69-2.07,8.21-3.09,16.82-4.07,25.15l-.32,2.66q-1.32,11.07-2.68,22.13l-1.5,12.3q-1.23,10.08-2.43,20.18l.39.17c9.71,4,15.47,11.76,17.1,23a57.69,57.69,0,0,1,.23,12.81c-1.5,20.08-2.89,41.47-2,62.87.1,2.4.28,4.87.45,7.25.1,1.41.2,2.81.28,4.22a23.8,23.8,0,0,1,0,3.31c-.35,4.3-3.27,7.41-7.27,7.75a8.29,8.29,0,0,1-9.09-6.69,36.21,36.21,0,0,1-.53-4.61c0-.39,0-.78-.08-1.18a294.14,294.14,0,0,1-.77-36.31c.42-9.75,1.08-19.62,1.72-29.18.18-2.58.35-5.17.52-7.75.27-4.08.52-7.9-.33-11.6-1.3-5.74-5.27-9.29-10.36-9.29h-.12a15.94,15.94,0,0,0-12.1,5.34,28.44,28.44,0,0,0-6.59,13.1,135.51,135.51,0,0,0-3.37,24.55c-.18,3.26-.38,6.53-.58,9.79s-.4,6.51-.58,9.76c-.43,8.1-2.11,16-3.73,23.65l-.51,2.44c-.73,3.49-1.53,7-2.3,10.4-1,4.39-2,8.93-2.91,13.4-3.4,17.12-2.27,33.37,3.34,48.31,4,10.55,9.54,18.88,17.05,25.47,15.16,13.29,29.19,28.09,42.77,42.41l3.6,3.79c6.78,7.14,13.72,14.37,20.43,21.36l.65.67a9.54,9.54,0,0,1,3.16,6.84c0,3.52-1.42,6-4.16,7.46A9,9,0,0,1,543.33,629.73Zm-40.17-47.85,1.46,1.82q.3.38.57.75c.34.43.63.81.92,1.11q16.77,17.75,33.57,35.46l.23.24a14.86,14.86,0,0,0,2.12,2,2.26,2.26,0,0,0,2.66.07c.43-.22.92-.47.93-2.16,0-.82-.37-1.49-1.49-2.65l-.65-.68c-6.71-7-13.66-14.23-20.45-21.38l-3.6-3.79c-13.49-14.22-27.43-28.92-42.38-42-8.15-7.15-14.45-16.53-18.71-27.87-6-16-7.22-33.36-3.6-51.59.9-4.55,1.93-9.13,2.94-13.56.76-3.37,1.55-6.86,2.27-10.3l.52-2.45c1.57-7.42,3.2-15.1,3.61-22.73.18-3.27.38-6.54.58-9.8s.4-6.51.58-9.76A141.32,141.32,0,0,1,468.77,377a34.29,34.29,0,0,1,8-15.78,22,22,0,0,1,16.44-7.25c8-.08,14.44,5.39,16.39,14,1,4.55.75,9,.47,13.28-.17,2.63-.35,5.22-.52,7.81-.64,9.51-1.3,19.35-1.72,29a288.41,288.41,0,0,0,.76,35.59l.09,1.24a29.72,29.72,0,0,0,.42,3.83,2.34,2.34,0,0,0,2.71,1.9c1.5-.13,1.75-1.76,1.79-2.25a20.23,20.23,0,0,0,0-2.46c-.09-1.39-.19-2.77-.29-4.16-.17-2.43-.35-4.94-.45-7.44-.86-21.72.54-43.31,2-63.56a52.66,52.66,0,0,0-.19-11.5c-1.32-9.09-5.73-15.07-13.46-18.29-.59-.24-1.16-.53-1.75-.82l-.73-.36-1.7-.81v-2.28a7.28,7.28,0,0,1,0-1.3q1.26-10.53,2.53-21l1.5-12.31q1.35-11.06,2.68-22.11l.32-2.65c1-8.52,2-17.34,4.22-25.92,1.52-6,3.26-12.88,7.65-18.79s10.25-9,17.19-8.94S544,237,545.07,243.42a67.31,67.31,0,0,1,.73,13c-.22,7.25-.52,14.61-.81,21.73-.45,11.07-.91,22.51-1.09,33.76-.24,15.57-.16,31.42-.08,46.75q0,8.71.07,17.44a11.38,11.38,0,0,0,.42,3.24c.43,1.45,1.23,1.63,2,1.62s1.74-.25,2.12-1.87a10.56,10.56,0,0,0,.15-2.44c0-2.88-.13-5.76-.2-8.64q-.13-5-.23-10c-.47-25.86.34-51.45,1.36-79.81.11-3.18.27-6.36.42-9.54.22-4.44.44-9,.54-13.53a67.81,67.81,0,0,0-.54-11.64c-.84-5.62-3.19-9.5-7.19-11.86a10.05,10.05,0,0,1-1.49-1.14c-.17-.15-.35-.31-.57-.48l-1.8-1.47,1-2.11c.24-.53.46-1.07.69-1.6a25.37,25.37,0,0,1,1.94-4c4.27-6.69,10.57-9.88,18.21-9.21,5.72.49,9.33,3.7,10.44,9.27a31.89,31.89,0,0,1,.61,7.75c-.31,6.34-.66,12.78-1,19-.4,7.33-.82,14.91-1.15,22.36-.7,15.52-1.21,29.57-1.57,43-.42,15.89-.75,32.58-1,51-.08,6.17.11,12.49.3,18.59l.06,2.15c0,1.58.77,2.37,2.15,2.37h0c1.85,0,2.21-1.6,2.27-2.54,0-.77,0-1.59,0-2.45,0-.64,0-1.28,0-1.91q.12-10.78.2-21.56c.14-17,.28-34.48.7-51.72.3-12.47,1-25.12,1.62-37.36.28-5.22.56-10.43.81-15.65.1-2.13.24-4.26.39-6.35l.18-2.77.14-2.2,2.15-.52c3.91-.94,7.44-.49,10.22,1.31a11.21,11.21,0,0,1,4.85,7.63,49.38,49.38,0,0,1,.58,11.54c-.21,4.66-.56,9.38-.89,13.94-.25,3.43-.51,7-.71,10.44l-.3,5.15c-1,17.43-2,35.46-2.92,53.19-.57,11.78-1,23.78-1.43,35.38-.12,3.5-.25,7-.38,10.49a20.23,20.23,0,0,0,.23,3.89c.25,1.53,1.08,1.82,1.77,1.89a1.94,1.94,0,0,0,2.12-1.29,15.88,15.88,0,0,0,.6-4.19c.15-4.15.27-8.3.4-12.45.17-5.71.34-11.62.6-17.43.7-16,1.53-32,2.33-47.51.23-4.34.52-8.76.81-13,.13-2,.27-4,.4-6l.13-2,1.95-.63a11.45,11.45,0,0,1,9.32.73,10,10,0,0,1,4.74,6.68,24.83,24.83,0,0,1,.4,6.85c-.12,2.15-.38,4.29-.64,6.35-.11.91-.23,1.83-.33,2.74-.37,3.36-.73,6.72-1.1,10.08-.77,7.07-1.54,14.14-2.36,21.21-.64,5.64-1.32,11.28-2,16.91-.94,7.83-1.91,15.92-2.79,23.88-1,9.1-2,18.37-2.89,27.32-.83,8-1.66,16.06-2.54,24.08-.8,7.42-1.65,14.83-2.5,22.25-1.16,10.16-2.36,20.68-3.43,31-1.35,13.08,2.78,24.24,12.27,33.18,9.24,8.69,18.69,17.48,27.83,26l5.51,5.13a18.39,18.39,0,0,0,2.76,2.22,2.22,2.22,0,0,0,2.85-.21,2.5,2.5,0,0,0,.27-3.09,9.52,9.52,0,0,0-1.58-1.82c-13-12.2-24-22.46-35.21-32.88a28.7,28.7,0,0,1-6.52-8.87,37.45,37.45,0,0,1-3.38-20l0-.52c.58-6,1.19-12.25,1.87-18.37q1.85-16.49,3.7-33,1.62-14.32,3.22-28.63.75-6.72,1.46-13.44c.51-4.78,1-9.56,1.56-14.33q.9-8,1.84-15.91c.51-4.37,1-8.75,1.53-13.12l.91-8c1.14-9.9,2.32-20.15,3.36-30.22a113.93,113.93,0,0,0,.89-15.88c-.31-8-6.15-13.48-14.51-13.72-.68,0-1.35-.08-2.1-.14l-1.1-.09-2.78-.21v-2.79c0-.39,0-.76,0-1.11,0-.82,0-1.6,0-2.42.11-1.6.24-3.19.37-4.78.22-2.72.45-5.53.57-8.28.21-5.08.37-9.65.18-14.18a16.59,16.59,0,0,0-2.85-9.26c-2.87-4-6.89-6.15-12.65-6.82-.73-.08-1.47-.14-2.25-.2l-4-.34v-4.2c0-.94,0-1.78,0-2.63s0-1.6,0-2.4a40.6,40.6,0,0,0-.14-5c-.83-7.31-4.52-12-11.29-14.3-8.37-2.85-18.61.34-24.35,7.59a30.88,30.88,0,0,0-5.76,11.19l-.59,2.14-2.22.07c-7.36.22-13.48,3.53-19.82,10.74l-4.56,5.19L507,237.9c-.14-1.46-.28-2.84-.42-4.17-.29-2.8-.55-5.37-.77-7.95q-1-11.31-1.93-22.63-1.71-20-3.45-40.08A36.06,36.06,0,0,0,497,150.25c-3.63-7.47-9.24-13.74-17.65-19.72-11.06-7.86-23.91-13.88-39.31-18.4-22.39-6.57-46.16-10.06-72.7-10.69a407,407,0,0,0-67.1,3.64c-26.71,3.78-50.23,9.46-71.91,17.38-18.61,6.79-34.29,14.84-47.93,24.62-10.37,7.43-17.52,14.66-22.5,22.75-5.18,8.41-7.23,16.8-6.27,25.64.91,8.43,1.62,17,2.31,25.29l.37,4.52q.54,6.43,1,12.88c.37,4.9.76,10,1.19,15,.61,7,1.29,14.18,1.95,21.1l1.08,11.47q.48,5.25.95,10.5c.58,6.51,1.18,13.25,1.85,19.86.52,5.08,1.09,10.26,1.65,15.27.69,6.19,1.41,12.58,2,18.9.72,7.53,2.24,16.21,8.06,23.51l1.38,1.73-1.56,2.29c-.26.4-.51.76-.78,1.1a39.68,39.68,0,0,0-8.37,18.6c-1.08,7-1.93,14.46-2.53,22.08-.77,9.68-1.42,19.54-2,29.08q-.39,6.11-.81,12.21l-1.08,16.06q-1.34,19.85-2.71,39.69c-.7,10.12-1.36,19.25-2.19,28.56A33,33,0,0,0,158.3,566c2.95,4.82,7.08,9.26,13,14,8.56,6.8,18.71,12.48,31.92,17.86,16,6.52,33.88,11.58,54.58,15.47a401.89,401.89,0,0,0,56,6.6c30.77,1.36,57.84.29,82.76-3.27,23.19-3.31,41.85-7.36,58.7-12.73,17.8-5.68,31.5-12,43.11-19.77a10,10,0,0,1,1.88-.94l.8-.34Zm99-284.13c-.09,1.25-.17,2.5-.25,3.74-.3,4.45-.58,8.66-.81,12.95-.8,15.49-1.63,31.51-2.33,47.46-.25,5.77-.43,11.66-.6,17.34,0,1.59-.09,3.18-.14,4.77.79-7,1.63-14,2.44-20.78.68-5.63,1.36-11.26,2-16.88.82-7.06,1.59-14.12,2.35-21.18L606,315.08c.1-.94.22-1.88.34-2.82.25-2.06.49-4,.6-5.95a20,20,0,0,0-.27-5.24,4.09,4.09,0,0,0-1.88-2.76A4.64,4.64,0,0,0,602.18,297.75Zm-259.9,318c-16.24,0-36.15-.85-47.82-2.06A383,383,0,0,1,223.64,600l-.19-.07-5.51-2.07a4.45,4.45,0,0,1-1.74-.2c-15.88-5.49-28.16-11.48-38.64-18.84a57.39,57.39,0,0,1-12.74-12c-5.45-7.11-7.56-14.7-6.45-23.19.67-5.21.95-10.61,1.23-15.84.12-2.44.25-4.89.42-7.33.29-4.32.59-8.63.9-13.12L162,491.83c1-13.95,2-28.13,2.89-41.84l0-.43c.2-3.08.39-6.16.6-9.47l.31-5,.54-7c.07-1,.13-2,.19-3.06.14-2.38.29-4.84.5-7.29.1-1.22.2-2.43.29-3.65.53-6.61,1.06-13.44,3.11-20.12a34.72,34.72,0,0,1,7.7-13.91l1.43-1.55,1.94.82c.66.27,1.31.57,2,.86,1.45.64,2.82,1.25,4.21,1.72a25.23,25.23,0,0,0,5.52,1.31,1.76,1.76,0,0,0,2.1-1.6c.2-1.09,0-1.88-1.47-2.45-.57-.22-1.2-.4-1.87-.6-.45-.12-.89-.25-1.33-.39-10.36-3.33-16.75-10.33-18.47-20.25-1.36-7.83-2.21-15.83-3-23.57l0-.18c-1.3-12.29-2.53-24.8-3.73-36.89l-1.29-12.94a5.87,5.87,0,0,1,.06-1.37c0-.09,0-.18,0-.29l-1-10.45c-.94-11.59-2-23.32-2.93-34.66l-1.91-22,5,2.83c.21.13.4.22.57.31a6.27,6.27,0,0,1,1.54,1c8.64,8,19.07,14.12,32.79,19.41,2.91,1.12,6.34,2.4,9.78,3.47,1.74.53,8.25,2.31,8.32,2.33,34.52,9.21,72.16,11.9,118.41,8.47l5.82-.82c39-4.47,72.86-13.42,103.59-27.37l0,0,5.9-2.55c.62-.37,1.23-.76,1.84-1.14,1.48-.92,3-1.88,4.59-2.76,14.42-8.07,24.27-15.72,31.93-24.8.8-.95,1.57-1.92,2.47-3l1.55-1.93,4.55-5.64.77,7.2c.12,1.09.23,2.11.34,3.08.23,2,.44,3.84.59,5.69q.82,9.88,1.63,19.77.58,7.23,1.18,14.47c0,.41.07.83.1,1.25a24.75,24.75,0,0,0,.44,3.74l.07.51.68,13,.21,1.2a23.82,23.82,0,0,1,.43,8.15c-1.6,9.89-3.13,20-4.55,30.08-1.17,8.3-2.18,16.63-3.11,24.45-.4,3.35-.75,6.77-1.1,10.08-.3,2.91-.6,5.83-.94,8.73-.31,2.74-.7,5.51-1.07,8.18l-.51,3.74-.24,1.78-1.68.63-.35.14a8.91,8.91,0,0,1-1.5.52c-12.06,2.69-19.79,10.55-23.66,24A104.06,104.06,0,0,0,460.86,400c-.53,19.24-3.49,39.56-9.05,62.13A131.36,131.36,0,0,0,448,493.49a87.73,87.73,0,0,0,3.46,23.58c.17.6.27,1.17.38,1.77,0,.23.09.47.14.73l1.68,5.44.24.46c.29.54.59,1.1.86,1.71,4.75,11,10.77,19.56,18.41,26.32,5,4.43,9.95,9.07,14.73,13.56l3.49,3.28c1.18,1.11,2.27,2.29,3.33,3.42.46.5.92,1,1.39,1.49l2.07,2.18L496,579.5c-7.17,6.83-40.41,21-50.62,21.67l-5.87,2.31a389.51,389.51,0,0,1-66.76,10.94h-.14l-5.66-.11C363.26,615.34,353.67,615.76,342.28,615.76ZM225.46,594.29a377,377,0,0,0,69.62,13.44c24,2.48,65.46,2.63,70.36.78l.54-.21,6.43.13a383.05,383.05,0,0,0,65.41-10.72l6.32-2.51h.55c7.19-.09,35.08-11.68,44.79-18.22-.74-.79-1.46-1.55-2.22-2.26l-3.5-3.28C479,567,474.1,562.37,469.16,558c-8.31-7.35-14.83-16.65-19.94-28.42-.16-.38-.38-.79-.63-1.26l-.42-.78L448,527l-1.87-6.14c-.08-.35-.13-.68-.19-1-.09-.5-.17-.91-.26-1.25A93.42,93.42,0,0,1,442,493.49a137.77,137.77,0,0,1,4-32.83c5.46-22.14,8.37-42.05,8.88-60.86a110.35,110.35,0,0,1,4.08-27.68c4.4-15.34,13.65-24.79,27.5-28.09l.27-1.91c.38-2.77.75-5.38,1.05-8,.34-2.89.64-5.78.94-8.67.34-3.33.7-6.78,1.1-10.17.94-7.86,1.95-16.22,3.13-24.58,1.42-10.1,3-20.27,4.57-30.2a18.75,18.75,0,0,0-.43-6.18c-.08-.45-.16-.92-.23-1.41l0-.32-.68-12.91a31.46,31.46,0,0,1-.52-4.41c0-.39-.05-.78-.09-1.17q-.6-7.23-1.18-14.47-.81-9.89-1.63-19.76c0-.5-.08-1-.13-1.48-8.09,9.44-18.34,17.37-33.16,25.66-1.45.82-2.86,1.69-4.34,2.62L453,227.91l-.38.2-6.06,2.62c-31.3,14.2-65.74,23.31-105.29,27.84l-6,.84c-47,3.5-85.29.75-120.53-8.65-.29-.08-6.69-1.83-8.52-2.39-3.61-1.12-7.16-2.45-10.16-3.61-12.21-4.7-22.29-10.32-30.65-17.09l.81,9.41c1,11.35,2,23.09,2.94,34.64l1.08,11,0,.29c0,.31-.07.56-.09.76a1,1,0,0,0,0,.16q.63,6.39,1.27,12.79c1.2,12.08,2.43,24.58,3.73,36.85l0,.18c.81,7.64,1.64,15.54,3,23.17,1.35,7.8,6.06,12.89,14.39,15.56.38.13.77.24,1.16.35.76.22,1.55.45,2.36.76a7.83,7.83,0,0,1,5.21,9.16,7.73,7.73,0,0,1-8.53,6.47,30.43,30.43,0,0,1-6.88-1.61c-1.61-.54-3.14-1.21-4.61-1.86a30.35,30.35,0,0,0-5,10c-1.86,6.05-2.35,12.26-2.86,18.83l-.3,3.69c-.21,2.38-.35,4.8-.49,7.13-.06,1.06-.13,2.11-.19,3.14l-.55,7-.31,5c-.2,3.32-.39,6.41-.6,9.51l0,.42c-.93,13.72-1.89,27.9-2.88,41.85l-1.05,15.49c-.32,4.48-.62,8.79-.91,13.11-.16,2.4-.29,4.82-.41,7.23-.28,5.34-.57,10.87-1.27,16.3-.9,6.94.77,12.9,5.26,18.77A51.83,51.83,0,0,0,181,573.92c9.93,7,21.62,12.68,36.76,18l.66,0H219Zm71.76-344.15q-14.6,0-28.49-1.13c-19-1.54-35.61-4.33-50.78-8.54-12.75-3.53-22.92-7.38-32-12.12A72.23,72.23,0,0,1,164,211c-8.05-9.54-9.81-20.25-5.21-31.82,3.19-8,8.59-15.24,16.49-22,9.69-8.29,21.18-15.49,35.12-22,17.54-8.18,37.22-14.7,60.15-19.93a374.53,374.53,0,0,1,41.78-6.86l.67,6a367.83,367.83,0,0,0-41.12,6.74c-22.51,5.14-41.79,11.52-58.94,19.52-13.44,6.27-24.48,13.17-33.76,21.11-7.14,6.12-12,12.55-14.81,19.66-3.77,9.49-2.39,17.91,4.22,25.74A66.2,66.2,0,0,0,188.73,223c8.69,4.54,18.49,8.24,30.82,11.66A265.28,265.28,0,0,0,269.22,243a370.34,370.34,0,0,0,57.6,0l12.61-1.25c35.38-3.69,67.6-12,98.49-25.48l9-4.4a146.63,146.63,0,0,0,20.9-13.21c9.12-6.95,15.13-13.74,18.92-21.36,4.55-9.15,3.82-17.88-2.23-26.68-3.43-5-8.34-9.44-15.44-14-9.47-6.08-20.61-10.82-35.06-14.93-15.87-4.51-33.55-7.43-54.06-8.92a366.43,366.43,0,0,0-54.74.32c-.75,0-1.53.16-2.36.28l-1.33.18-7.86.75-.57-6,7.77-.75,1.16-.15c.89-.13,1.8-.26,2.74-.33a372.77,372.77,0,0,1,55.62-.31c20.92,1.52,39,4.5,55.27,9.13,15,4.27,26.68,9.25,36.66,15.65,7.8,5,13.25,10,17.14,15.64,7.29,10.61,8.19,21.63,2.66,32.75-4.21,8.47-10.77,15.93-20.65,23.47a153.56,153.56,0,0,1-21.84,13.79l-9.26,4.51C408.9,235.47,376.08,244,340,247.73L327.34,249C317.12,249.76,307.06,250.14,297.22,250.14Zm9.95-38.85a143.61,143.61,0,0,1-20-1.36c-10.1-1.41-18.1-3.72-25.17-7.28A27.2,27.2,0,0,1,251.65,194a17.76,17.76,0,0,1-.31-20.77c3.59-5.48,8.66-9.78,15.93-13.52,11.38-5.84,24.25-9.83,39.35-12.17,2.86-.45,5.67-.77,8.65-1.11l4.11-.48h.21l7.88-.42h.12c2.38.07,4.76.12,7.14.17,5.26.11,10.7.22,16.06.56A74.76,74.76,0,0,1,378.54,153a40.76,40.76,0,0,1,9.83,6.37c7.76,7,8.55,18,1.87,26.34-.86,1.08-1.79,2.09-2.77,3.15L386,190.44l-.28.32-10.63,6.67a9.06,9.06,0,0,1-1.18.62l-.25.12a121.67,121.67,0,0,1-31.93,9.9l-15.55,2.34-2.1.12c-1.36.07-2.62.14-3.87.24Q313.52,211.3,307.17,211.29ZM320,151.89l-4.07.48c-2.91.33-5.66.64-8.4,1.06-14.46,2.25-26.73,6-37.53,11.59-6.31,3.24-10.65,6.89-13.65,11.47a11.75,11.75,0,0,0,.2,14,21.38,21.38,0,0,0,8.17,6.76c6.46,3.25,13.87,5.38,23.3,6.7a145.72,145.72,0,0,0,31.71.8c1.3-.1,2.6-.17,4-.25l2-.11,15.06-2.28a115,115,0,0,0,30.29-9.39l.36-.17a4.39,4.39,0,0,0,.43-.21l10-6.26,1.24-1.35c.95-1,1.78-1.94,2.52-2.86,4.69-5.82,4.19-13.27-1.21-18.12a34.75,34.75,0,0,0-8.39-5.4,68.82,68.82,0,0,0-25.55-6.18c-5.24-.33-10.62-.44-15.82-.55-2.35,0-4.71-.1-7.06-.17Zm-11.42,48.7h-.06c-9.63-.19-19.85-.61-29.74-3.41a81.81,81.81,0,0,1-10.88-4,19.67,19.67,0,0,1-5.86-4.06c-3.57-3.56-3.69-7.27-.39-11.35a31.25,31.25,0,0,1,9-7.4c6.65-3.81,14.26-6.77,24-9.32,15.2-4,31.95-5.47,51.2-4.51,10.63.52,19.74,2.54,27.85,6.16a29.5,29.5,0,0,1,6.38,3.87c4.3,3.46,4.84,8,1.48,12.55a18.23,18.23,0,0,1-3.23,3.25c-5.79,4.68-12.81,8.2-22.09,11a175,175,0,0,1-47.51,7.2Zm26.17-38.36a150.56,150.56,0,0,0-38.65,4.6c-9.18,2.41-16.33,5.18-22.5,8.72a25.26,25.26,0,0,0-7.29,6c-1.5,1.87-1.25,2.12,0,3.33a13.69,13.69,0,0,0,4,2.83,77.5,77.5,0,0,0,10.09,3.74c9.17,2.6,18.93,3,28.15,3.18a169,169,0,0,0,45.83-6.93c8.52-2.63,14.9-5.8,20.07-10a12.91,12.91,0,0,0,2.2-2.16c1.57-2.11,1.14-3-.43-4.29a23.07,23.07,0,0,0-5.07-3.07c-7.42-3.31-15.83-5.16-25.7-5.65Q340,162.23,334.76,162.23Z"/><path class="cls-2" d="M373.81,494.51a6.12,6.12,0,0,1-5.68-3.84c-27.53-68.89-9.6-118.61,10.28-148.19,21.48-32,49.17-47.4,50.34-48a6.11,6.11,0,1,1,5.89,10.7h0c-.26.15-26.58,14.91-46.36,44.56C362,389.09,359,435,379.48,486.13a6.11,6.11,0,0,1-5.67,8.38Z"/><path class="cls-2" d="M373.82,497.51h0a9.07,9.07,0,0,1-8.46-5.73c-28-70.1-9.72-120.8,10.57-151,21.88-32.55,50.19-48.34,51.38-49a9.11,9.11,0,1,1,8.79,16c-.25.14-26,14.72-45.31,43.6-25.7,38.51-28.56,83.48-8.51,133.65a9.11,9.11,0,0,1-8.45,12.49Zm57.87-200.83a3.14,3.14,0,0,0-1.5.39c-1.14.62-28.21,15.73-49.29,47.08-19.48,29-37,77.73-10,145.4a3.1,3.1,0,0,0,2.89,2,3.26,3.26,0,0,0,1.15-.22,3.12,3.12,0,0,0,1.74-4.05c-20.83-52.11-17.77-98.94,9.09-139.2,20.2-30.29,47.13-45.38,47.4-45.52a3.11,3.11,0,0,0-1.5-5.84Z"/><path class="cls-2" d="M391.37,397a6.31,6.31,0,0,1-1.42-.16,6.11,6.11,0,0,1-4.52-7.36c8.22-34.5,32.83-53.22,33.87-54a6.11,6.11,0,0,1,7.33,9.78c-.35.26-22.18,17.1-29.32,47.05A6.1,6.1,0,0,1,391.37,397Z"/><path class="cls-2" d="M391.37,400a9.1,9.1,0,0,1-8.86-11.22c8.47-35.54,33.92-54.9,35-55.7a9.11,9.11,0,0,1,10.92,14.58c-.2.15-21.34,16.59-28.2,45.34A9.06,9.06,0,0,1,391.37,400ZM423,337.22a3.14,3.14,0,0,0-1.86.61c-1,.76-24.78,18.84-32.76,52.29a3.12,3.12,0,0,0,2.31,3.75,3.12,3.12,0,0,0,3.74-2.31c7.37-30.89,29.48-48,30.42-48.73a3.11,3.11,0,0,0-1.85-5.61Z"/><line class="cls-2" x1="181.68" y1="376.52" x2="257.2" y2="407.25"/><path class="cls-2" d="M257.19,415.25a8,8,0,0,1-3-.59l-75.51-30.73a8,8,0,1,1,6-14.82l75.51,30.73a8,8,0,0,1-3,15.41Z"/><line class="cls-2" x1="80.96" y1="157.93" x2="119.68" y2="170.52"/><path class="cls-2" d="M119.68,178.52a7.93,7.93,0,0,1-2.48-.39L78.48,165.54a8,8,0,0,1,5-15.22l38.72,12.59a8,8,0,0,1-2.47,15.61Z"/><line class="cls-2" x1="158.02" y1="87.28" x2="164.15" y2="127.53"/><path class="cls-2" d="M164.14,135.53a8,8,0,0,1-7.9-6.8l-6.13-40.25a8,8,0,0,1,15.82-2.4l6.13,40.25a8,8,0,0,1-6.7,9.11A8.45,8.45,0,0,1,164.14,135.53Z"/><line class="cls-2" x1="110.14" y1="115.15" x2="137.28" y2="143.29"/><path class="cls-2" d="M137.28,151.29a8,8,0,0,1-5.76-2.44L104.38,120.7a8,8,0,1,1,11.51-11.1L143,137.74a8,8,0,0,1-5.76,13.55Z"/></g></g></svg>